<svg xmlns="http://www.w3.org/2000/svg">
  <!-- Lucide-derived symbols. See icons/LICENSE-lucide.txt. -->
  <symbol id="file-plus" viewBox="0 0 24 24" fill="none" stroke="currentColor" stroke-width="2" stroke-linecap="round" stroke-linejoin="round">
    <path d="M6 22a2 2 0 0 1-2-2V4a2 2 0 0 1 2-2h8a2.4 2.4 0 0 1 1.704.706l3.588 3.588A2.4 2.4 0 0 1 20 8v12a2 2 0 0 1-2 2z" />
    <path d="M14 2v5a1 1 0 0 0 1 1h5" />
    <path d="M9 15h6M12 18v-6" />
  </symbol>
  <symbol id="file-text" viewBox="0 0 24 24" fill="none" stroke="currentColor" stroke-width="2" stroke-linecap="round" stroke-linejoin="round">
    <path d="M6 22a2 2 0 0 1-2-2V4a2 2 0 0 1 2-2h8a2.4 2.4 0 0 1 1.704.706l3.588 3.588A2.4 2.4 0 0 1 20 8v12a2 2 0 0 1-2 2z" />
    <path d="M14 2v5a1 1 0 0 0 1 1h5" />
    <path d="M9 9h2M9 13h6M9 17h6" />
  </symbol>
  <symbol id="gauge" viewBox="0 0 24 24" fill="none" stroke="currentColor" stroke-width="2" stroke-linecap="round" stroke-linejoin="round">
    <path d="m12 14 4-4" />
    <path d="M3.34 19a10 10 0 1 1 17.32 0" />
  </symbol>
  <symbol id="messages-square" viewBox="0 0 24 24" fill="none" stroke="currentColor" stroke-width="2" stroke-linecap="round" stroke-linejoin="round">
    <path d="M16 10a2 2 0 0 1-2 2H6.828a2 2 0 0 0-1.414.586l-2.202 2.202A.71.71 0 0 1 2 14.286V4a2 2 0 0 1 2-2h10a2 2 0 0 1 2 2z" />
    <path d="M20 9a2 2 0 0 1 2 2v10.286a.71.71 0 0 1-1.212.502l-2.202-2.202A2 2 0 0 0 17.172 19H10a2 2 0 0 1-2-2v-1" />
  </symbol>
  <symbol id="image-plus" viewBox="0 0 24 24" fill="none" stroke="currentColor" stroke-width="2" stroke-linecap="round" stroke-linejoin="round">
    <path d="M16 5h6" />
    <path d="M19 2v6" />
    <path d="M21 11.5V19a2 2 0 0 1-2 2H5a2 2 0 0 1-2-2V5a2 2 0 0 1 2-2h7.5" />
    <path d="m21 15-3.086-3.086a2 2 0 0 0-2.828 0L6 21" />
    <circle cx="9" cy="9" r="2" />
  </symbol>
  <symbol id="video-plus" viewBox="0 0 24 24" fill="none" stroke="currentColor" stroke-width="2" stroke-linecap="round" stroke-linejoin="round">
    <rect x="2" y="5" width="15" height="14" rx="2" />
    <path d="m17 10 5-3v10l-5-3M7 12h5M9.5 9.5v5" />
  </symbol>
  <symbol id="layers-3" viewBox="0 0 24 24" fill="none" stroke="currentColor" stroke-width="2" stroke-linecap="round" stroke-linejoin="round">
    <path d="M12.83 2.18a2 2 0 0 0-1.66 0L2.6 6.08a1 1 0 0 0 0 1.83l8.58 3.91a2 2 0 0 0 1.66 0l8.58-3.9a1 1 0 0 0 0-1.83z" />
    <path d="M2 12a1 1 0 0 0 .58.91l8.6 3.91a2 2 0 0 0 1.65 0l8.58-3.9A1 1 0 0 0 22 12" />
    <path d="M2 17a1 1 0 0 0 .58.91l8.6 3.91a2 2 0 0 0 1.65 0l8.58-3.9A1 1 0 0 0 22 17" />
  </symbol>
  <symbol id="sliders-horizontal" viewBox="0 0 24 24" fill="none" stroke="currentColor" stroke-width="2" stroke-linecap="round" stroke-linejoin="round">
    <path d="M10 5H3M12 19H3M21 12h-9M21 19h-5M21 5h-7M8 12H3" />
    <path d="M14 3v4M16 17v4M8 10v4" />
  </symbol>
  <symbol id="book-open-text" viewBox="0 0 24 24" fill="none" stroke="currentColor" stroke-width="2" stroke-linecap="round" stroke-linejoin="round">
    <path d="M12 7v14M16 12h2M16 8h2" />
    <path d="M3 18a1 1 0 0 1-1-1V4a1 1 0 0 1 1-1h5a4 4 0 0 1 4 4 4 4 0 0 1 4-4h5a1 1 0 0 1 1 1v13a1 1 0 0 1-1 1h-6a3 3 0 0 0-3 3 3 3 0 0 0-3-3z" />
    <path d="M6 12h2M6 8h2" />
  </symbol>
  <symbol id="shapes" viewBox="0 0 24 24" fill="none" stroke="currentColor" stroke-width="2" stroke-linecap="round" stroke-linejoin="round">
    <path d="M8.3 10a.7.7 0 0 1-.626-1.079L11.4 3a.7.7 0 0 1 1.198-.043L16.3 8.9a.7.7 0 0 1-.572 1.1Z" />
    <rect x="3" y="14" width="7" height="7" rx="1" />
    <circle cx="17.5" cy="17.5" r="3.5" />
  </symbol>
  <symbol id="moon" viewBox="0 0 24 24" fill="none" stroke="currentColor" stroke-width="2" stroke-linecap="round" stroke-linejoin="round">
    <path d="M20.985 12.486a9 9 0 1 1-9.473-9.472c.405-.022.617.46.402.803a6 6 0 0 0 8.268 8.268c.344-.215.825-.004.803.401" />
  </symbol>
  <symbol id="sun" viewBox="0 0 24 24" fill="none" stroke="currentColor" stroke-width="2" stroke-linecap="round" stroke-linejoin="round">
    <circle cx="12" cy="12" r="4" />
    <path d="M12 2v2M12 20v2M2 12h2M20 12h2" />
    <path d="m4.93 4.93 1.41 1.41m11.32 11.32 1.41 1.41m-12.73-1.41-1.41 1.41M19.07 4.93l-1.41 1.41" />
  </symbol>
  <symbol id="camera" viewBox="0 0 24 24" fill="none" stroke="currentColor" stroke-width="2" stroke-linecap="round" stroke-linejoin="round">
    <path d="M13.997 4a2 2 0 0 1 1.76 1.05l.486.9A2 2 0 0 0 18.003 7H20a2 2 0 0 1 2 2v9a2 2 0 0 1-2 2H4a2 2 0 0 1-2-2V9a2 2 0 0 1 2-2h1.997a2 2 0 0 0 1.759-1.048l.489-.904A2 2 0 0 1 10.004 4z" />
    <circle cx="12" cy="13" r="3" />
  </symbol>
  <symbol id="workflow" viewBox="0 0 24 24" fill="none" stroke="currentColor" stroke-width="2" stroke-linecap="round" stroke-linejoin="round">
    <rect width="8" height="8" x="3" y="3" rx="2" />
    <path d="M7 11v4a2 2 0 0 0 2 2h4" />
    <rect width="8" height="8" x="13" y="13" rx="2" />
  </symbol>
  <symbol id="languages" viewBox="0 0 24 24" fill="none" stroke="currentColor" stroke-width="2" stroke-linecap="round" stroke-linejoin="round">
    <path d="m5 8 6 6m-7 0 6-6 2-3M2 5h12M7 2h1m14 20-5-10-5 10M14 18h6" />
  </symbol>
  <symbol id="volume-2" viewBox="0 0 24 24" fill="none" stroke="currentColor" stroke-width="2" stroke-linecap="round" stroke-linejoin="round">
    <path d="M11 5 6 9H2v6h4l5 4zM15.54 8.46a5 5 0 0 1 0 7.07M19.07 4.93a10 10 0 0 1 0 14.14" />
  </symbol>
  <symbol id="settings" viewBox="0 0 24 24" fill="none" stroke="currentColor" stroke-width="2" stroke-linecap="round" stroke-linejoin="round">
    <path d="M9.671 4.136a2.34 2.34 0 0 1 4.659 0 2.34 2.34 0 0 0 3.319 1.915 2.34 2.34 0 0 1 2.33 4.033 2.34 2.34 0 0 0 0 3.831 2.34 2.34 0 0 1-2.33 4.033 2.34 2.34 0 0 0-3.319 1.915 2.34 2.34 0 0 1-4.659 0 2.34 2.34 0 0 0-3.32-1.915 2.34 2.34 0 0 1-2.33-4.033 2.34 2.34 0 0 0 0-3.831A2.34 2.34 0 0 1 6.35 6.051a2.34 2.34 0 0 0 3.319-1.915" />
    <circle cx="12" cy="12" r="3" />
  </symbol>
  <symbol id="search" viewBox="0 0 24 24" fill="none" stroke="currentColor" stroke-width="2" stroke-linecap="round" stroke-linejoin="round">
    <path d="m21 21-4.34-4.34" /><circle cx="11" cy="11" r="8" />
  </symbol>
  <symbol id="refresh-cw" viewBox="0 0 24 24" fill="none" stroke="currentColor" stroke-width="2" stroke-linecap="round" stroke-linejoin="round">
    <path d="M3 12a9 9 0 0 1 9-9 9.75 9.75 0 0 1 6.74 2.74L21 8M21 3v5h-5M21 12a9 9 0 0 1-9 9 9.75 9.75 0 0 1-6.74-2.74L3 16M8 16H3v5" />
  </symbol>
  <symbol id="upload" viewBox="0 0 24 24" fill="none" stroke="currentColor" stroke-width="2" stroke-linecap="round" stroke-linejoin="round">
    <path d="M12 3v12m5-7-5-5-5 5M21 15v4a2 2 0 0 1-2 2H5a2 2 0 0 1-2-2v-4" />
  </symbol>
  <symbol id="download" viewBox="0 0 24 24" fill="none" stroke="currentColor" stroke-width="2" stroke-linecap="round" stroke-linejoin="round">
    <path d="M12 15V3M21 15v4a2 2 0 0 1-2 2H5a2 2 0 0 1-2-2v-4m4-5 5 5 5-5" />
  </symbol>
  <symbol id="trash-2" viewBox="0 0 24 24" fill="none" stroke="currentColor" stroke-width="2" stroke-linecap="round" stroke-linejoin="round">
    <path d="M10 11v6M14 11v6M19 6v14a2 2 0 0 1-2 2H7a2 2 0 0 1-2-2V6M3 6h18M8 6V4a2 2 0 0 1 2-2h4a2 2 0 0 1 2 2v2" />
  </symbol>
  <symbol id="folder" viewBox="0 0 24 24" fill="none" stroke="currentColor" stroke-width="2" stroke-linecap="round" stroke-linejoin="round">
    <path d="M20 20a2 2 0 0 0 2-2V8a2 2 0 0 0-2-2h-7.9a2 2 0 0 1-1.69-.9L9.6 3.9A2 2 0 0 0 7.93 3H4a2 2 0 0 0-2 2v13a2 2 0 0 0 2 2Z" />
  </symbol>
  <symbol id="copy" viewBox="0 0 24 24" fill="none" stroke="currentColor" stroke-width="2" stroke-linecap="round" stroke-linejoin="round">
    <rect width="14" height="14" x="8" y="8" rx="2" ry="2" />
    <path d="M4 16c-1.1 0-2-.9-2-2V4c0-1.1.9-2 2-2h10c1.1 0 2 .9 2 2" />
  </symbol>

  <!-- Workbench domain family. -->
  <symbol id="pool-llm" viewBox="0 0 24 24" fill="none" stroke="currentColor" stroke-width="2" stroke-linecap="round" stroke-linejoin="round">
    <rect x="5" y="2" width="14" height="12" rx="2" />
    <path d="M8 6h8M8 10h6M4 19h16m-13-3-3 3 3 3m10-6 3 3-3 3" />
  </symbol>
  <symbol id="pool-asr" viewBox="0 0 24 24" fill="none" stroke="currentColor" stroke-width="2" stroke-linecap="round" stroke-linejoin="round">
    <rect x="9" y="2" width="6" height="10" rx="3" />
    <path d="M6 9a6 6 0 0 0 12 0M12 15v1M4 20h16m-13-3-3 3 3 3m10-6 3 3-3 3" />
  </symbol>
  <symbol id="pool-tts" viewBox="0 0 24 24" fill="none" stroke="currentColor" stroke-width="2" stroke-linecap="round" stroke-linejoin="round">
    <path d="M4 8h3l4-4v12l-4-4H4zM14 7a4 4 0 0 1 0 6M17 5a7 7 0 0 1 0 10M4 20h16m-13-3-3 3 3 3m10-6 3 3-3 3" />
  </symbol>
  <symbol id="pool-image" viewBox="0 0 24 24" fill="none" stroke="currentColor" stroke-width="2" stroke-linecap="round" stroke-linejoin="round">
    <rect x="4" y="2" width="16" height="13" rx="2" />
    <circle cx="9" cy="7" r="1.5" />
    <path d="m5 14 4-4 3 3 2-2 5 4M4 20h16m-13-3-3 3 3 3m10-6 3 3-3 3" />
  </symbol>
  <symbol id="pool-video" viewBox="0 0 24 24" fill="none" stroke="currentColor" stroke-width="2" stroke-linecap="round" stroke-linejoin="round">
    <rect x="4" y="2" width="16" height="13" rx="2" />
    <path d="m10 6 5 3-5 3zM4 20h16m-13-3-3 3 3 3m10-6 3 3-3 3" />
  </symbol>
  <symbol id="image" viewBox="0 0 24 24" fill="none" stroke="currentColor" stroke-width="2" stroke-linecap="round" stroke-linejoin="round">
    <rect width="18" height="18" x="3" y="3" rx="2" />
    <circle cx="9" cy="9" r="2" />
    <path d="m21 15-3.086-3.086a2 2 0 0 0-2.828 0L6 21" />
  </symbol>
  <symbol id="clipboard-check" viewBox="0 0 24 24" fill="none" stroke="currentColor" stroke-width="2" stroke-linecap="round" stroke-linejoin="round">
    <rect width="8" height="4" x="8" y="2" rx="1" />
    <path d="M16 4h2a2 2 0 0 1 2 2v14a2 2 0 0 1-2 2H6a2 2 0 0 1-2-2V6a2 2 0 0 1 2-2h2" />
    <path d="m9 14 2 2 4-4" />
  </symbol>
</svg>
